P2 
# ppg 
100 100 
255 
93 94 94 95 97 99 101 103 106 110 113 117 122 126 131 137 142 148 154 159 165 171 176 182 187 192 196 200 
203 205 207 209 209 209 208 206 204 201 197 192 187 181 175 168 161 154 146 139 131 123 115 107 100 
92 85 79 72 67 61 57 53 49 46 44 42 41 40 40 41 42 43 45 48 51 55 58 62 67 71 76 81 86 91 96 101 106 111 115 120 124 128 131 134 137 140 142 144 145 146 146 94 94 95 96 97 99 101 104 107 110 114 118 122 127 132 137 142 148 154 160 165 171 177 182 187 192 196 200 
203 205 207 208 209 209 208 206 204 200 
197 192 187 181 175 168 161 154 146 138 131 123 115 107 100 
92 85 79 72 67 61 57 53 49 46 44 42 41 40 40 41 42 43 46 48 51 55 58 63 67 71 76 81 86 91 96 101 106 111 115 120 124 128 131 135 138 140 142 144 145 146 147 94 95 95 97 98 100 
102 104 107 111 114 118 123 127 132 137 143 148 154 160 166 171 177 182 187 192 196 199 203 205 207 208 209 209 208 206 203 200 
196 192 187 181 175 168 161 154 146 138 130 123 115 107 100 
92 85 79 72 67 62 57 53 49 46 44 42 41 40 40 41 42 44 46 48 51 55 59 63 67 72 76 81 86 91 96 101 106 111 116 120 124 128 132 135 138 140 142 144 145 146 147 96 96 97 98 99 101 103 106 108 112 115 119 123 128 133 138 143 149 155 160 166 171 177 182 187 192 196 199 202 205 207 208 208 208 207 205 203 200 
196 191 186 181 174 168 161 153 146 138 130 122 115 107 99 92 85 79 72 67 62 57 53 49 46 44 42 41 40 40 41 42 44 46 49 52 55 59 63 67 72 77 82 87 92 97 102 107 111 116 120 124 128 132 135 138 141 143 145 146 147 147 97 98 98 99 101 102 105 107 110 113 117 120 125 129 134 139 144 150 155 161 166 172 177 182 187 192 196 199 202 205 207 208 208 208 207 205 203 199 195 191 186 180 174 167 160 153 146 138 130 122 114 107 99 92 85 79 72 67 62 57 53 49 46 44 42 41 41 41 41 42 44 46 49 52 56 59 64 68 73 77 82 87 92 97 102 107 112 116 121 125 129 132 136 139 141 143 145 146 147 148 99 100 
100 
101 103 104 106 109 111 115 118 122 126 130 135 140 145 150 156 161 167 172 177 182 187 192 196 199 202 204 206 207 208 207 206 204 202 199 195 190 185 180 173 167 160 153 145 138 130 122 114 107 99 92 85 79 73 67 62 57 53 49 47 44 43 41 41 41 42 43 45 47 50 53 56 60 64 68 73 78 83 88 93 98 103 108 113 117 122 126 130 133 136 139 142 144 146 147 148 148 101 102 102 103 105 106 108 111 113 116 120 123 127 132 136 141 146 151 157 162 167 173 178 183 187 191 195 199 202 204 206 207 207 207 206 204 201 198 194 190 185 179 173 166 159 152 145 137 129 122 114 106 99 92 85 79 73 67 62 57 53 50 47 45 43 42 41 41 42 43 45 47 50 53 57 61 65 69 74 79 84 89 94 99 104 109 113 118 122 126 130 134 137 140 143 145 146 148 149 149 104 104 105 106 107 109 111 113 115 118 122 125 129 133 138 142 147 152 158 163 168 173 178 183 187 191 195 199 201 204 205 206 206 206 205 203 201 197 193 189 184 178 172 166 159 152 144 137 129 121 114 106 99 92 85 79 73 67 62 57 53 50 47 45 43 42 42 42 43 44 46 48 51 54 58 61 66 70 75 80 85 90 95 100 
105 110 114 119 123 127 131 135 138 141 144 146 147 149 150 150 106 107 107 108 109 111 113 115 118 120 124 127 131 135 139 144 149 153 158 163 168 173 178 183 187 191 195 198 201 203 204 205 206 205 204 202 200 
196 193 188 183 178 172 165 158 151 144 136 129 121 114 106 99 92 85 79 73 67 62 58 54 50 48 45 44 43 42 43 43 45 47 49 52 55 58 62 67 71 76 81 86 91 96 101 106 111 115 120 124 129 132 136 139 142 145 147 148 150 151 151 109 109 110 111 112 114 115 117 120 123 126 129 133 137 141 145 150 154 159 164 169 174 179 183 187 191 195 198 200 
202 204 205 205 204 203 201 199 196 192 187 182 177 171 164 158 151 143 136 128 121 113 106 99 92 85 79 73 68 63 58 54 51 48 46 45 44 43 43 44 46 48 50 53 56 60 64 68 72 77 82 87 92 97 102 107 112 117 121 126 130 134 137 140 143 146 148 150 151 152 152 112 112 113 114 115 116 118 120 122 125 128 131 135 138 142 147 151 156 160 165 170 174 179 183 187 191 194 197 200 
202 203 204 204 203 202 200 
198 195 191 186 181 176 170 164 157 150 143 135 128 121 113 106 99 92 85 79 73 68 63 59 55 52 49 47 45 44 44 44 45 47 49 51 54 57 61 65 69 74 78 83 88 93 98 104 109 113 118 123 127 131 135 139 142 145 147 149 151 152 153 154 115 115 116 116 117 119 120 122 125 127 130 133 136 140 144 148 152 157 161 166 170 175 179 183 187 191 194 197 199 201 202 203 203 202 201 199 197 193 190 185 180 175 169 163 156 149 142 135 128 120 113 106 99 92 85 79 74 68 63 59 55 52 50 48 46 45 45 46 46 48 50 52 55 59 62 66 71 75 80 85 90 95 100 
105 110 115 120 124 129 133 137 140 143 146 149 151 152 154 155 155 117 118 118 119 120 121 123 125 127 129 132 135 138 142 145 149 153 157 162 166 170 175 179 183 187 190 193 196 198 200 
201 202 202 201 200 
198 195 192 189 184 179 174 168 162 156 149 142 135 127 120 113 106 99 92 86 80 74 69 64 60 56 53 51 49 47 47 46 47 48 49 51 54 57 60 64 68 72 77 82 87 92 97 102 107 112 117 122 126 130 135 138 142 145 148 150 152 154 155 156 157 120 120 121 122 123 124 125 127 129 131 134 137 140 143 147 150 154 158 162 167 171 175 179 183 186 190 193 195 197 199 200 
201 201 200 
199 197 194 191 187 183 178 173 167 161 155 148 141 134 127 120 113 106 99 92 86 80 75 70 65 61 57 54 52 50 49 48 48 48 49 51 53 56 59 62 66 70 74 79 84 89 94 99 104 109 114 119 124 128 132 136 140 144 147 150 152 154 156 157 158 158 123 123 123 124 125 126 127 129 131 133 136 138 141 144 148 151 155 159 163 167 171 175 179 182 186 189 192 194 196 198 199 199 199 199 197 195 193 190 186 182 177 172 167 161 154 148 141 134 127 120 113 106 99 93 87 81 75 70 66 62 58 55 53 51 50 49 49 50 51 53 55 58 61 64 68 72 76 81 86 91 96 101 106 111 116 121 126 130 134 138 142 146 149 152 154 156 158 159 160 160 125 125 125 126 127 128 129 131 133 135 137 140 142 145 149 152 156 159 163 167 171 175 178 182 185 188 191 193 195 197 198 198 198 197 196 194 192 189 185 181 176 171 166 160 154 147 140 134 127 120 113 106 100 
93 87 82 76 71 67 63 60 57 54 53 52 51 51 52 53 55 57 60 63 66 70 74 79 83 88 93 98 103 108 113 118 123 128 132 137 141 144 148 151 154 156 158 160 161 162 162 127 127 127 128 129 130 131 133 134 136 138 141 144 146 149 153 156 160 163 167 171 174 178 181 184 187 190 192 194 195 196 197 196 196 195 193 190 187 184 180 175 170 165 159 153 147 140 133 127 120 113 107 100 
94 88 82 77 72 68 64 61 58 56 54 53 53 53 54 55 57 59 62 65 69 73 77 81 86 91 96 101 106 111 116 121 126 130 135 139 143 147 150 153 156 158 160 162 163 164 164 128 129 129 129 130 131 132 134 135 137 139 142 144 147 150 153 156 160 163 167 170 174 177 180 183 186 189 191 193 194 195 195 195 194 193 191 189 186 183 179 174 169 164 158 152 146 140 133 127 120 114 107 101 95 89 83 78 74 69 66 63 60 58 56 56 55 55 56 58 59 62 65 68 71 75 80 84 89 94 99 104 109 114 119 124 128 133 137 142 145 149 152 155 158 160 162 164 165 166 166 130 130 130 131 131 132 133 135 136 138 140 142 145 147 150 153 156 159 163 166 170 173 176 179 182 185 187 189 191 192 193 194 193 193 192 190 187 185 181 177 173 168 163 158 152 146 140 133 127 120 114 108 102 96 90 85 80 75 71 68 64 62 60 59 58 58 58 59 60 62 65 67 71 74 78 83 87 92 97 102 107 112 117 122 126 131 136 140 144 148 152 155 158 160 163 165 166 167 168 169 130 131 131 132 132 133 134 135 137 139 140 143 145 147 150 153 156 159 162 165 169 172 175 178 181 183 186 188 190 191 192 192 192 191 190 188 186 183 180 176 172 168 163 157 152 146 140 133 127 121 115 108 102 97 91 86 81 77 73 69 67 64 62 61 60 60 61 62 63 65 68 70 74 77 81 86 90 95 100 
105 110 115 120 125 129 134 138 143 147 151 154 157 160 163 165 167 168 170 170 171 131 131 131 132 133 133 134 136 137 139 140 143 145 147 150 152 155 158 161 164 168 171 174 177 179 182 184 186 188 189 190 190 190 190 188 187 185 182 179 175 171 167 162 157 151 145 140 134 127 121 115 109 103 98 92 87 83 79 75 72 69 67 65 64 63 63 64 65 66 68 71 74 77 81 85 89 94 98 103 108 113 118 123 128 132 137 141 146 150 153 157 160 163 165 167 169 171 172 173 173 131 131 132 132 133 133 134 136 137 138 140 142 144 147 149 152 154 157 160 163 166 169 172 175 178 180 183 184 186 187 188 188 188 188 187 185 183 181 178 174 170 166 161 156 151 145 140 134 128 122 116 110 105 99 94 89 85 81 77 74 71 69 68 67 66 66 67 68 70 72 74 77 81 84 88 93 97 102 107 111 116 121 126 131 136 140 144 149 152 156 159 163 165 168 170 172 173 174 175 175 131 131 131 132 132 133 134 135 136 138 139 141 143 146 148 151 153 156 159 162 165 168 171 173 176 178 181 183 184 185 186 187 187 186 185 184 182 179 176 173 169 165 161 156 151 145 140 134 128 123 117 111 106 101 96 91 87 83 79 76 74 72 71 70 69 69 70 71 73 75 78 81 84 88 92 96 101 106 110 115 120 125 130 134 139 143 147 152 155 159 162 165 168 170 172 174 175 176 177 177 130 130 130 131 131 132 133 134 135 137 138 140 142 144 147 149 152 154 157 160 163 166 169 172 174 176 179 181 182 183 184 185 185 184 183 182 180 178 175 172 168 164 160 155 150 145 140 135 129 123 118 113 107 102 98 93 89 85 82 79 77 75 74 73 73 73 74 75 77 79 82 85 88 92 96 100 
105 109 114 119 124 128 133 138 142 146 151 154 158 162 165 168 170 173 175 176 178 179 179 180 129 129 129 130 130 131 132 133 134 135 137 139 141 143 145 147 150 153 155 158 161 164 167 169 172 174 177 178 180 181 182 183 183 183 182 180 179 177 174 171 168 164 160 155 150 145 140 135 130 124 119 114 109 104 100 
95 91 88 85 82 80 78 77 76 76 77 78 79 81 83 86 89 92 96 100 
104 109 113 118 123 127 132 137 141 145 150 154 158 161 164 167 170 173 175 177 179 180 181 181 182 127 127 128 128 129 129 130 131 132 134 135 137 139 141 143 146 148 151 153 156 159 162 165 167 170 172 174 176 178 179 180 181 181 181 180 179 177 175 173 170 167 163 159 155 150 146 141 136 131 125 120 115 111 106 102 98 94 91 88 85 83 82 81 80 80 81 82 83 85 87 90 93 97 101 105 109 113 118 122 127 131 136 140 145 149 153 157 161 164 167 170 173 175 177 179 181 182 183 183 184 125 126 126 126 127 127 128 129 130 132 133 135 137 139 141 143 146 148 151 154 157 159 162 165 167 170 172 174 176 177 178 179 179 179 178 177 176 174 172 169 166 162 159 155 150 146 141 136 131 127 122 117 112 108 104 100 
97 93 91 88 87 85 84 84 84 85 86 87 89 92 95 98 101 105 109 113 117 122 126 131 135 140 144 148 152 156 160 164 167 170 173 175 178 180 181 183 184 185 185 186 123 123 124 124 124 125 126 127 128 129 131 133 134 136 139 141 143 146 149 151 154 157 160 162 165 167 170 172 173 175 176 177 177 177 177 176 174 173 171 168 165 162 158 155 150 146 142 137 133 128 123 119 114 110 106 103 99 97 94 92 90 89 88 88 88 89 90 92 94 96 99 102 106 110 114 118 122 126 130 135 139 143 148 152 156 159 163 166 170 173 175 178 180 182 183 185 186 187 187 187 121 121 121 121 122 123 123 124 125 127 128 130 132 134 136 138 141 143 146 149 151 154 157 160 162 165 167 169 171 172 174 174 175 175 175 174 173 171 169 167 164 161 158 154 151 146 142 138 134 129 125 121 116 113 109 105 102 100 
97 95 94 93 92 92 93 94 95 97 99 101 104 107 111 114 118 122 126 131 135 139 143 147 151 155 159 163 166 169 172 175 178 180 182 184 185 187 188 188 189 189 118 118 118 119 119 120 121 122 123 124 125 127 129 131 133 135 138 140 143 146 149 152 154 157 160 162 165 167 169 170 171 172 173 173 173 172 171 170 168 166 164 161 158 154 151 147 143 139 135 131 126 122 119 115 111 108 105 103 101 99 98 97 97 97 97 98 100 
101 104 106 109 112 115 119 123 127 131 135 139 143 147 151 155 159 162 166 169 172 175 178 180 182 184 186 187 188 189 190 190 191 115 115 115 115 116 117 117 118 120 121 122 124 126 128 130 132 135 137 140 143 146 149 151 154 157 159 162 164 166 168 169 170 171 171 171 171 170 169 167 165 163 160 157 154 151 147 144 140 136 132 128 124 121 117 114 111 109 106 104 103 102 101 101 101 102 103 104 106 108 111 114 117 120 124 128 132 135 139 143 147 151 155 159 162 166 169 172 175 178 180 182 184 186 187 189 190 191 191 192 192 111 111 112 112 113 113 114 115 116 118 119 121 123 125 127 129 132 134 137 140 143 146 149 151 154 157 159 161 164 165 167 168 169 169 169 169 168 167 166 164 162 160 157 154 151 148 144 141 137 133 130 126 123 120 117 114 112 110 108 107 106 105 105 106 106 108 109 111 113 116 119 122 125 129 132 136 140 144 148 152 155 159 162 166 169 172 175 178 180 182 184 186 188 189 190 191 192 193 193 193 108 108 108 109 109 110 111 112 113 114 116 117 119 121 124 126 129 131 134 137 140 143 146 148 151 154 157 159 161 163 164 166 167 167 168 168 167 166 165 163 162 159 157 154 151 148 145 142 138 135 132 128 125 122 120 117 115 113 112 111 110 110 110 110 111 112 114 116 118 121 124 127 130 134 137 141 145 148 152 156 159 163 166 169 172 175 178 180 182 184 186 188 189 191 192 193 193 194 194 194 104 104 104 105 105 106 107 108 109 111 112 114 116 118 120 123 125 128 131 134 137 140 143 146 148 151 154 156 158 160 162 164 165 165 166 166 166 165 164 163 161 159 157 154 152 149 146 143 140 136 133 130 128 125 122 120 118 117 116 115 114 114 114 115 116 117 119 121 123 126 129 132 135 139 142 146 149 153 156 160 163 166 169 172 175 178 180 183 185 186 188 190 191 192 193 194 195 195 195 195 100 
100 
101 101 102 102 103 104 106 107 109 110 112 114 117 119 122 125 127 130 133 136 140 143 145 148 151 154 156 158 160 161 163 163 164 164 164 164 163 162 160 158 156 154 152 149 146 144 141 138 135 132 130 127 125 123 122 120 119 119 118 118 119 119 121 122 124 126 128 131 134 137 140 143 147 150 154 157 160 164 167 170 173 176 178 181 183 185 187 188 190 191 192 193 194 195 195 196 196 196 96 96 97 97 98 98 99 100 
102 103 105 107 109 111 113 116 118 121 124 127 130 133 136 140 143 146 148 151 153 156 158 159 161 162 162 163 163 162 162 161 159 158 156 154 152 150 147 144 142 139 137 134 132 130 128 126 125 124 123 122 122 122 123 124 125 127 129 131 133 136 139 142 145 148 151 155 158 161 164 168 171 173 176 179 181 183 185 187 189 190 192 193 194 195 195 196 196 197 197 197 92 92 93 93 94 95 96 97 98 99 101 103 105 107 110 112 115 118 121 124 127 130 133 137 140 143 146 148 151 153 155 157 158 160 161 161 161 161 161 160 159 157 156 154 152 150 148 145 143 141 138 136 134 132 131 129 128 127 126 126 126 127 127 128 130 131 133 136 138 141 144 147 150 153 156 159 162 165 168 171 174 177 179 182 184 186 188 189 191 192 193 194 195 196 196 197 197 197 198 198 88 88 89 89 90 91 92 93 94 96 97 99 101 104 106 109 112 114 118 121 124 127 130 134 137 140 143 146 148 151 153 155 156 158 159 159 160 160 160 159 158 157 156 154 152 150 148 146 144 142 140 138 136 135 133 132 131 130 130 130 130 131 132 133 134 136 138 140 143 145 148 151 154 157 160 163 166 169 172 175 178 180 182 184 186 188 190 191 192 194 195 195 196 197 197 197 198 198 198 198 84 84 85 85 86 87 88 89 90 92 94 96 98 100 
103 105 108 111 114 117 121 124 127 131 134 137 140 143 146 148 151 153 155 156 157 158 158 159 158 158 157 156 155 154 152 151 149 147 145 143 142 140 138 137 136 135 134 134 133 133 134 135 136 137 139 140 142 145 147 150 153 156 159 162 165 168 170 173 176 179 181 183 185 187 189 190 192 193 194 195 196 197 197 198 198 198 198 199 199 199 80 80 81 81 82 83 84 85 86 88 90 92 94 97 99 102 105 108 111 114 118 121 125 128 131 135 138 141 144 146 149 151 153 154 155 156 157 157 157 157 157 156 155 154 152 151 149 148 146 145 143 142 140 139 138 137 137 137 137 137 137 138 140 141 143 145 147 149 152 154 157 160 163 166 169 172 174 177 179 182 184 186 188 190 191 193 194 195 196 196 197 198 198 198 199 199 199 199 199 199 76 76 77 77 78 79 80 81 83 84 86 88 91 93 96 99 102 105 108 111 115 118 122 125 129 132 135 138 141 144 147 149 151 152 154 155 156 156 156 156 156 155 155 154 153 151 150 149 147 146 144 143 142 141 140 140 140 140 140 140 141 142 143 145 147 149 151 153 156 159 161 164 167 170 173 175 178 180 183 185 187 189 191 192 193 195 196 197 197 198 198 199 199 199 199 199 199 199 200 
200 
72 73 73 74 74 75 76 78 79 81 83 85 87 90 92 95 98 102 105 108 112 115 119 123 126 130 133 136 139 142 145 147 149 151 152 154 154 155 155 155 155 155 154 154 153 152 150 149 148 147 146 145 144 143 143 142 142 142 143 143 144 145 147 148 150 152 155 157 160 162 165 168 171 174 176 179 181 184 186 188 190 192 193 194 196 197 197 198 199 199 199 200 
200 
200 
200 
200 
200 
200 
200 
200 
69 69 69 70 71 71 73 74 75 77 79 81 84 86 89 92 95 99 102 106 109 113 116 120 124 127 131 134 137 140 143 145 147 149 151 152 153 154 155 155 155 154 154 153 153 152 151 150 149 148 147 146 146 145 145 145 145 145 145 146 147 149 150 152 154 156 158 161 163 166 169 172 174 177 180 182 184 187 189 191 192 194 195 197 198 198 199 200 
200 
200 
200 
200 
201 200 
200 
200 
200 
200 
200 
200 
65 65 66 66 67 68 69 70 72 74 76 78 81 83 86 89 92 96 99 103 107 110 114 118 121 125 129 132 135 138 141 144 146 148 150 151 152 153 154 154 154 154 154 153 153 152 151 151 150 149 148 148 147 147 147 147 147 147 148 149 150 152 153 155 157 159 162 164 167 169 172 175 178 180 183 185 187 190 191 193 195 196 197 198 199 200 
200 
201 201 201 201 201 201 201 201 201 201 201 201 201 61 62 62 63 63 64 66 67 69 71 73 75 78 80 83 86 90 93 97 100 
104 108 112 116 119 123 127 130 133 136 139 142 144 146 148 150 151 152 153 153 154 154 154 153 153 152 152 151 150 150 149 149 149 148 148 149 149 150 150 151 153 154 156 158 160 162 165 167 170 173 175 178 181 183 186 188 190 192 194 196 197 198 199 200 
201 201 202 202 202 202 202 202 202 202 201 201 201 201 201 201 58 58 59 59 60 61 62 64 66 67 70 72 75 77 80 84 87 90 94 98 102 106 110 113 117 121 125 128 132 135 138 141 143 145 147 149 150 151 152 153 153 153 153 153 153 153 152 152 151 151 150 150 150 150 150 150 151 152 152 154 155 157 159 161 163 165 167 170 173 175 178 181 183 186 188 190 192 194 196 198 199 200 
201 202 202 203 203 203 203 203 203 203 202 202 202 202 202 201 201 201 55 55 55 56 57 58 59 61 63 64 67 69 72 75 78 81 84 88 92 96 100 
104 108 112 116 119 123 127 130 134 137 139 142 144 146 148 150 151 152 153 153 153 153 153 153 153 153 152 152 152 151 151 151 151 151 152 153 153 154 156 157 159 161 163 165 167 170 172 175 178 180 183 186 188 190 192 194 196 198 199 201 202 202 203 204 204 204 204 204 204 204 203 203 203 202 202 202 202 202 201 52 52 52 53 54 55 56 58 60 62 64 66 69 72 75 79 82 86 90 94 98 102 106 110 114 118 122 125 129 132 135 138 141 143 146 147 149 150 151 152 153 153 153 154 154 153 153 153 153 152 152 152 152 152 153 153 154 155 156 158 159 161 163 165 167 170 172 175 177 180 182 185 187 190 192 194 196 198 200 
201 202 203 204 204 205 205 205 205 205 205 204 204 204 203 203 202 202 202 202 202 49 49 49 50 51 52 54 55 57 59 61 64 67 70 73 76 80 84 88 92 96 100 
104 108 112 116 120 124 128 131 135 138 140 143 145 147 149 150 151 152 153 153 154 154 154 154 154 154 153 153 153 153 153 154 154 155 156 157 158 159 161 163 164 167 169 171 174 176 179 182 184 187 189 191 194 196 198 199 201 202 203 204 205 205 206 206 206 206 205 205 205 204 204 204 203 203 203 202 202 202 46 46 47 47 48 50 51 53 54 57 59 62 65 68 71 74 78 82 86 90 94 98 103 107 111 115 119 123 127 130 134 137 140 142 145 147 148 150 151 152 153 154 154 154 154 154 154 154 154 154 154 154 154 155 155 156 157 158 159 160 162 164 166 168 170 173 175 178 180 183 185 188 190 193 195 197 199 200 
202 203 204 205 206 206 206 206 206 206 206 206 205 205 204 204 204 203 203 203 202 202 44 44 44 45 46 47 49 50 52 54 57 60 62 66 69 73 76 80 84 89 93 97 101 106 110 114 118 122 126 130 133 136 139 142 144 147 148 150 151 152 153 154 154 155 155 155 155 155 155 155 155 155 155 156 156 157 158 159 160 162 163 165 167 169 171 174 176 179 181 184 186 189 191 194 196 198 199 201 202 204 205 205 206 206 207 207 207 207 206 206 206 205 205 204 204 203 203 203 203 203 41 41 42 43 44 45 46 48 50 52 55 58 61 64 67 71 75 79 83 87 92 96 100 
105 109 114 118 122 126 130 133 136 139 142 145 147 149 150 152 153 154 155 155 155 156 156 156 156 156 156 156 156 156 157 157 158 159 160 161 163 164 166 168 170 172 175 177 180 182 185 187 189 192 194 196 198 200 
201 203 204 205 206 206 207 207 207 207 207 207 206 206 205 205 204 204 204 203 203 203 203 39 39 40 41 42 43 44 46 48 50 53 56 59 62 66 69 73 78 82 86 91 95 100 
104 109 113 117 122 126 129 133 136 139 142 145 147 149 151 152 154 155 155 156 156 157 157 157 157 157 157 157 157 158 158 158 159 160 161 162 163 165 167 169 171 173 175 178 180 182 185 187 190 192 194 196 198 200 
201 203 204 205 206 206 207 207 207 207 207 207 206 206 205 205 205 204 204 204 203 203 203 37 37 38 39 40 41 43 44 46 49 51 54 57 61 64 68 72 76 81 85 90 94 99 104 108 113 117 121 126 129 133 137 140 143 145 148 150 152 153 154 156 156 157 157 158 158 158 158 158 158 158 158 159 159 159 160 161 162 163 164 166 167 169 171 173 175 178 180 183 185 187 190 192 194 196 198 200 
201 203 204 205 206 206 207 207 207 207 207 207 206 206 205 205 205 204 204 204 203 203 203 35 36 36 37 38 39 41 43 45 47 50 53 56 60 63 67 71 76 80 84 89 94 99 103 108 113 117 122 126 130 134 137 140 143 146 149 151 153 154 156 157 158 158 159 159 159 159 159 159 159 159 160 160 160 160 161 162 162 163 165 166 168 169 171 173 175 178 180 182 185 187 189 191 194 196 197 199 201 202 203 204 205 206 206 206 206 207 206 206 206 206 205 205 205 204 204 204 203 203 203 34 34 35 36 37 38 40 41 44 46 49 52 55 59 62 66 70 75 79 84 89 93 98 103 108 113 117 122 126 130 134 138 141 144 147 150 152 154 156 157 158 159 160 160 161 161 161 161 161 161 161 161 161 161 161 162 162 163 164 165 166 168 170 171 173 175 177 180 182 184 186 189 191 193 195 197 198 200 
201 202 203 204 205 205 206 206 206 206 206 206 205 205 205 204 204 204 204 203 203 203 33 33 33 34 35 37 38 40 43 45 48 51 54 58 62 66 70 74 79 84 88 93 98 103 108 113 118 122 127 131 135 139 142 145 148 151 153 155 157 159 160 161 161 162 162 162 162 162 162 162 162 162 162 162 162 163 163 164 165 166 167 168 169 171 173 175 177 179 181 183 185 188 190 192 194 195 197 199 200 
201 202 203 204 204 205 205 205 205 205 205 205 205 204 204 204 204 203 203 203 203 32 32 32 33 34 36 37 39 42 44 47 50 53 57 61 65 69 74 79 83 88 93 98 103 108 113 118 123 127 132 136 140 143 147 150 153 155 157 159 160 162 163 163 164 164 164 164 164 164 164 164 164 163 163 163 164 164 164 165 166 167 168 169 171 172 174 176 178 180 182 184 186 188 190 192 194 196 197 199 200 
201 202 203 203 204 204 204 204 204 204 204 204 204 204 203 203 203 203 203 203 31 31 32 32 34 35 37 39 41 43 46 49 53 56 60 65 69 74 78 83 88 93 99 104 109 114 119 124 128 133 137 141 145 148 151 154 157 159 161 162 164 165 165 166 166 166 166 166 166 166 165 165 165 165 165 165 165 165 165 166 167 168 169 170 172 173 175 177 179 181 183 185 187 189 191 192 194 196 197 198 199 200 
201 202 202 203 203 203 203 203 203 203 203 203 203 203 203 203 202 202 30 30 31 32 33 34 36 38 40 43 46 49 52 56 60 64 69 73 78 83 88 94 99 104 109 115 120 125 129 134 138 143 146 150 153 156 159 161 163 165 166 167 168 168 169 169 169 168 168 168 167 167 166 166 166 166 165 166 166 166 167 168 169 170 171 172 174 176 177 179 181 183 185 187 189 190 192 194 195 196 198 199 200 
200 
201 201 202 202 202 202 203 203 203 202 202 202 202 202 202 202 30 30 30 31 32 34 36 38 40 42 45 49 52 56 60 64 69 73 78 83 89 94 99 105 110 115 121 126 131 135 140 144 148 152 155 158 161 163 165 167 168 169 170 171 171 171 171 171 170 170 169 169 168 167 167 167 166 166 166 167 167 167 168 169 170 171 173 174 176 178 179 181 183 185 187 188 190 192 193 194 196 197 198 199 199 200 
200 
201 201 201 202 202 202 202 202 202 202 202 202 202 29 30 30 31 32 34 35 37 40 42 45 48 52 56 60 64 69 73 78 84 89 94 100 
105 111 116 122 127 132 137 141 146 150 154 157 160 163 166 168 170 171 172 173 173 174 174 173 173 173 172 171 170 170 169 168 168 167 167 167 167 167 167 168 168 169 170 172 173 174 176 177 179 181 183 184 186 188 189 191 192 193 195 196 197 197 198 199 199 200 
200 
200 
201 201 201 201 201 201 201 201 201 29 29 30 31 32 33 35 37 39 42 45 48 52 56 60 64 69 74 79 84 89 95 100 
106 111 117 123 128 133 138 143 148 152 156 159 163 166 168 170 172 174 175 176 176 176 176 176 176 175 174 173 172 172 171 170 169 168 168 167 167 167 167 167 168 168 169 170 171 173 174 176 177 179 180 182 184 185 187 188 190 191 192 194 195 196 196 197 198 198 199 199 199 200 
200 
200 
200 
200 
200 
200 
200 
29 29 30 31 32 33 35 37 39 42 45 48 52 56 60 64 69 74 79 84 90 95 101 107 112 118 124 129 134 140 145 149 154 158 162 165 168 171 173 175 176 178 178 179 179 179 179 178 178 177 176 175 174 172 171 170 169 169 168 167 167 167 167 167 168 168 169 170 171 172 173 175 176 178 180 181 183 184 186 187 189 190 191 193 194 195 195 196 197 197 198 198 199 199 199 199 199 199 199 200 
29 30 30 31 32 33 35 37 40 42 45 48 52 56 60 64 69 74 79 84 90 96 101 107 113 119 125 130 136 141 146 151 156 160 164 167 170 173 176 178 179 180 181 182 182 182 182 181 180 179 178 177 176 174 173 172 171 170 169 168 167 167 167 166 167 167 168 168 169 170 171 173 174 176 177 179 180 182 183 185 186 188 189 190 191 193 194 194 195 196 196 197 197 198 198 198 198 199 199 199 30 30 30 31 32 34 35 37 40 42 45 48 52 56 60 64 69 74 79 85 90 96 102 108 114 120 125 131 137 142 148 153 157 162 166 170 173 176 178 180 182 183 184 185 185 185 184 184 183 182 181 179 178 176 175 173 172 171 169 168 167 167 166 166 166 166 166 167 167 168 169 171 172 173 175 176 178 179 181 182 184 185 187 188 189 191 192 193 194 194 195 196 196 197 197 197 198 198 198 198 30 30 31 32 33 34 36 38 40 42 45 48 52 56 60 64 69 74 79 85 90 96 102 108 114 120 126 132 138 144 149 154 159 164 168 172 175 178 181 183 185 186 187 188 188 188 187 187 186 184 183 182 180 178 177 175 173 172 170 169 168 167 166 165 165 165 165 165 166 167 167 168 170 171 172 174 175 177 178 180 182 183 185 186 187 189 190 191 192 193 194 194 195 196 196 196 197 197 197 197 30 31 31 32 33 34 36 38 40 43 45 49 52 56 60 64 69 74 79 85 91 96 102 108 115 121 127 133 139 145 150 156 161 165 170 174 177 181 183 186 188 189 190 191 191 191 190 189 188 187 186 184 182 180 178 176 175 173 171 170 168 167 166 165 164 164 164 164 164 165 165 166 167 169 170 171 173 174 176 178 179 181 182 184 185 187 188 189 190 191 192 193 194 195 195 196 196 196 196 197 31 31 32 32 33 35 36 38 40 43 46 49 52 56 60 64 69 74 79 85 90 96 102 109 115 121 127 134 140 146 151 157 162 167 172 176 179 183 186 188 190 192 193 193 194 194 193 192 191 190 188 186 184 182 180 178 176 174 172 170 169 167 166 165 164 163 163 163 163 163 164 164 165 166 168 169 170 172 174 175 177 179 180 182 183 185 186 188 189 190 191 192 193 194 194 195 195 196 196 196 31 32 32 33 34 35 37 38 41 43 46 49 52 56 60 64 69 74 79 85 90 96 102 109 115 121 128 134 140 146 152 158 163 168 173 177 181 185 188 190 193 194 195 196 196 196 196 195 194 192 191 189 187 184 182 180 178 175 173 171 169 167 166 165 163 163 162 162 162 162 162 163 163 164 166 167 168 170 171 173 175 176 178 180 181 183 185 186 187 189 190 191 192 193 194 194 195 195 195 195 32 32 33 33 34 35 37 39 41 43 46 49 52 56 59 64 68 73 79 84 90 96 102 108 115 121 128 134 140 147 153 159 164 169 174 179 183 187 190 192 195 197 198 199 199 199 198 198 196 195 193 191 189 187 184 182 179 177 174 172 170 168 166 165 163 162 161 161 160 160 161 161 162 163 164 165 166 168 169 171 173 175 176 178 180 182 183 185 186 188 189 190 191 192 193 194 194 195 195 195 32 33 33 34 35 36 37 39 41 43 46 48 52 55 59 63 68 73 78 83 89 95 101 108 114 121 127 134 140 147 153 159 165 170 175 180 184 188 191 194 197 199 200 
201 201 201 201 200 
199 197 196 193 191 189 186 183 181 178 176 173 171 168 166 165 163 162 161 160 160 159 159 160 160 161 162 163 164 166 167 169 171 173 175 176 178 180 182 184 185 187 188 189 191 192 193 193 194 194 195 195 33 33 34 34 35 36 37 39 41 43 45 48 51 55 59 63 67 72 77 83 88 94 101 107 113 120 127 133 140 147 153 159 165 171 176 181 185 189 193 196 198 200 
202 203 204 204 203 202 201 200 
198 196 193 191 188 185 182 180 177 174 172 169 167 165 163 162 160 160 159 158 158 159 159 160 160 162 163 164 166 168 169 171 173 175 177 179 181 183 184 186 188 189 190 191 192 193 194 194 195 195 33 34 34 34 35 36 37 39 41 43 45 48 51 54 58 62 66 71 76 81 87 93 99 106 112 119 126 133 139 146 153 159 165 171 176 181 186 190 194 197 200 
202 204 205 205 206 205 205 203 202 200 
198 195 193 190 187 184 181 178 175 173 170 168 165 163 162 160 159 158 158 158 158 158 158 159 160 162 163 165 166 168 170 172 174 176 178 180 182 184 186 187 189 190 191 192 193 194 195 195 195 34 34 34 35 35 36 37 39 40 42 45 47 50 53 57 61 65 70 75 80 86 92 98 104 111 118 125 131 138 145 152 158 164 170 176 181 186 190 194 198 201 203 205 206 207 207 207 206 205 204 202 200 
197 195 192 189 186 183 180 177 174 171 168 166 164 162 160 159 158 157 157 157 157 158 158 159 161 162 164 165 167 169 171 173 175 177 180 182 183 185 187 189 190 191 193 194 194 195 195 196 34 34 34 35 35 36 37 38 40 42 44 46 49 52 56 59 64 68 73 78 84 90 96 103 109 116 123 130 137 144 151 157 164 170 175 181 186 191 195 198 201 204 206 207 208 209 209 208 207 206 204 202 199 197 194 191 187 184 181 178 175 172 169 167 165 163 161 159 158 157 157 157 157 157 158 159 160 161 163 165 167 169 171 173 175 177 179 181 183 185 187 189 191 192 193 194 195 196 196 196 34 34 34 35 35 36 37 38 39 41 43 45 48 51 54 58 62 66 71 76 82 88 94 100 
107 114 121 128 135 142 149 156 162 169 175 180 185 190 195 198 202 204 207 208 209 210 210 209 209 207 205 203 201 198 195 192 189 186 183 179 176 173 170 168 165 163 161 160 159 158 157 157 157 157 158 158 160 161 163 164 166 168 170 173 175 177 179 182 184 186 188 190 191 193 194 195 196 197 197 197 34 34 34 34 35 36 36 37 39 40 42 44 47 49 52 56 60 64 69 74 80 85 92 98 105 111 119 126 133 140 147 154 161 167 173 179 184 189 194 198 202 204 207 209 210 211 211 211 210 209 207 205 203 200 
197 194 191 188 184 181 178 175 172 169 166 164 162 160 159 158 157 157 157 157 158 158 160 161 163 164 166 168 171 173 175 177 180 182 184 187 189 191 192 194 195 196 197 198 199 199 33 34 34 34 34 35 36 37 38 39 41 43 45 48 51 54 58 62 67 72 77 83 89 95 102 109 116 123 130 137 145 152 158 165 171 177 183 188 193 197 201 204 207 209 210 211 212 211 211 210 208 206 204 201 199 196 192 189 186 182 179 176 173 170 168 165 163 161 160 159 158 157 157 158 158 159 160 161 163 165 167 169 171 173 176 178 181 183 185 188 190 192 194 195 197 198 199 200 
200 
200 
33 33 33 33 34 34 35 36 37 38 39 41 43 46 48 52 55 59 64 69 74 80 86 92 99 106 113 120 127 134 142 149 156 163 169 176 181 187 192 196 200 
204 206 209 210 211 212 212 212 211 209 207 205 203 200 
197 194 191 187 184 181 178 175 172 169 167 164 163 161 160 159 158 158 158 159 159 161 162 163 165 167 169 172 174 177 179 182 184 187 189 191 193 195 197 198 200 
201 202 202 202 32 32 33 33 33 33 34 34 35 36 38 39 41 43 46 49 53 57 61 66 71 76 82 89 95 102 109 117 124 131 139 146 153 160 167 173 179 185 190 195 199 203 206 208 210 211 212 212 212 211 210 209 206 204 201 199 195 192 189 186 182 179 176 173 170 168 166 164 162 161 160 159 159 159 160 160 162 163 164 166 168 171 173 175 178 180 183 186 188 191 193 195 197 199 201 202 203 204 204 205 32 32 32 32 32 32 33 33 34 35 36 37 39 41 44 46 50 54 58 62 67 73 79 85 92 98 106 113 120 128 135 143 150 157 164 171 177 183 188 193 197 201 205 207 209 211 212 213 212 212 211 209 207 205 203 200 
197 194 191 187 184 181 178 175 172 170 167 165 164 162 162 161 161 161 161 162 163 164 166 168 170 172 174 177 179 182 185 187 190 193 195 197 199 201 203 204 205 206 207 207 31 31 31 31 31 31 31 32 32 33 34 35 37 39 41 44 47 50 54 59 64 69 75 81 88 95 102 109 116 124 132 139 146 154 161 168 174 180 186 191 196 200 
203 206 209 210 212 212 213 212 211 210 208 206 204 201 198 195 192 189 186 183 180 177 174 171 169 167 166 164 163 163 162 162 163 163 164 166 167 169 171 174 176 179 181 184 187 190 192 195 197 200 
202 204 205 207 208 209 210 210 30 30 29 29 29 29 30 30 30 31 32 33 34 36 38 40 43 47 51 55 60 65 71 77 84 90 97 105 112 120 128 135 143 150 157 164 171 177 183 189 193 198 202 205 208 210 211 212 212 212 212 211 209 207 205 202 200 
197 194 191 187 184 181 178 176 173 171 169 167 166 165 164 164 164 164 165 166 168 169 171 173 176 178 181 183 186 189 192 195 197 200 
202 205 207 208 210 211 212 213 213 28 28 28 28 28 28 28 28 28 29 29 30 31 33 35 37 40 43 47 51 56 61 67 73 79 86 93 100 
108 116 123 131 139 146 154 161 168 174 180 186 191 196 200 
203 206 209 210 211 212 212 212 211 210 208 206 204 201 198 195 192 189 186 183 180 178 175 173 171 169 168 167 166 166 166 167 167 168 170 171 173 175 178 180 183 186 189 192 194 197 200 
203 205 207 210 211 213 214 215 216 216 27 27 27 27 26 26 26 26 26 26 27 28 29 30 32 34 37 40 43 47 52 57 63 69 75 82 89 96 104 111 119 127 135 142 150 157 164 171 177 183 189 193 198 201 205 207 209 211 212 212 212 211 210 209 207 205 202 200 
197 194 191 188 185 182 180 177 175 173 172 170 169 169 168 168 169 169 171 172 174 176 178 180 183 185 188 191 194 197 200 
203 206 208 211 213 215 216 217 218 219 220 25 25 25 25 25 24 24 24 24 24 24 25 26 27 29 31 33 36 39 43 48 53 58 64 70 77 84 92 99 107 115 123 131 138 146 154 161 168 174 180 186 191 196 200 
203 206 208 210 211 212 212 211 210 209 208 206 203 201 198 195 193 190 187 184 182 180 177 176 174 173 172 171 171 171 171 172 173 174 176 178 180 183 185 188 191 194 197 200 
203 206 209 211 214 216 218 220 221 222 223 223 24 24 23 23 23 22 22 22 22 22 22 22 23 24 25 27 29 32 36 39 44 49 54 60 66 73 80 87 95 102 110 118 126 134 142 150 157 164 171 177 183 188 193 197 201 204 207 209 210 211 211 211 211 210 208 206 204 202 200 
197 194 192 189 186 184 182 180 178 176 175 174 173 173 173 174 174 175 177 179 181 183 185 188 191 194 197 200 
203 206 209 212 214 217 219 221 223 224 225 226 226 22 22 22 21 21 21 20 20 19 19 19 19 20 21 22 24 26 29 32 35 40 44 50 55 62 68 75 83 90 98 106 114 122 130 138 146 153 161 168 174 180 186 191 195 199 203 206 208 209 211 211 211 211 210 209 207 205 203 201 199 196 194 191 188 186 184 182 180 179 177 176 176 176 176 176 177 178 179 181 183 186 188 191 194 197 200 
203 206 209 212 215 218 220 223 225 226 228 229 230 230 20 20 20 20 19 19 18 18 17 17 17 17 17 18 19 20 23 25 28 32 36 40 45 51 57 64 71 78 86 94 102 110 118 126 134 142 150 157 164 171 177 183 188 193 197 201 204 207 209 210 211 211 211 210 209 208 206 204 202 200 
198 195 193 190 188 186 184 182 181 180 179 178 178 178 179 179 181 182 184 186 188 191 194 196 199 203 206 209 212 215 218 221 223 226 228 230 231 232 233 233 19 19 18 18 17 17 16 15 15 14 14 14 14 15 16 17 19 22 24 28 32 36 41 47 53 60 67 74 82 89 98 106 114 122 130 139 146 154 161 168 175 181 186 191 196 199 203 205 208 209 210 211 211 211 210 209 207 205 203 201 199 197 195 192 190 188 186 185 183 182 181 181 181 181 181 182 183 185 186 189 191 193 196 199 202 205 209 212 215 218 221 224 227 229 231 233 234 236 236 237 17 17 17 16 15 15 14 13 13 12 12 12 12 12 13 14 16 18 21 24 28 33 38 43 49 56 63 70 78 85 94 102 110 119 127 135 143 151 158 165 172 178 184 189 194 198 201 204 207 209 210 211 211 211 210 209 208 206 205 203 201 198 196 194 192 190 188 187 185 184 184 183 183 183 184 184 186 187 189 191 193 196 199 202 205 208 211 215 218 221 224 227 230 232 234 236 238 239 240 240 15 15 15 14 14 13 12 11 11 10 10 9 9 10 10 11 13 15 18 21 25 29 34 40 46 52 59 66 74 82 90 98 107 115 123 132 140 148 155 163 169 176 182 187 192 196 200 
203 206 208 209 210 211 211 211 210 209 207 206 204 202 200 
198 196 194 192 190 189 187 186 186 185 185 185 186 187 188 190 191 193 196 199 201 204 208 211 214 217 221 224 227 230 233 235 237 239 241 242 243 243 14 14 13 13 12 11 11 10 9 8 7 7 7 7 8 9 10 12 15 18 22 26 31 36 42 49 56 63 70 78 87 95 103 112 120 129 137 145 153 160 167 174 180 185 190 195 199 202 205 207 209 210 211 211 211 210 209 208 207 205 203 201 199 197 195 194 192 191 189 188 188 187 187 187 188 189 190 192 194 196 198 201 204 207 210 213 216 220 223 226 229 232 235 238 240 242 243 244 245 246 13 12 12 12 11 10 9 8 7 6 6 5 5 5 6 7 8 10 12 16 19 23 28 33 39 46 53 60 67 75 84 92 101 109 118 126 134 143 150 158 165 172 178 184 189 194 198 201 204 207 209 210 211 211 211 211 210 209 207 206 204 202 200 
199 197 195 194 192 191 190 189 189 189 189 190 191 192 194 196 198 200 
203 206 209 212 215 219 222 225 229 232 235 237 240 242 244 246 247 248 248 12 11 11 10 10 9 8 7 6 5 4 4 3 3 4 5 6 8 10 13 17 21 26 31 37 43 50 57 65 73 81 90 98 107 115 124 132 141 148 156 163 170 177 182 188 193 197 200 
204 206 208 210 211 211 211 211 210 209 208 207 205 203 202 200 
198 196 195 194 192 192 191 191 191 191 191 192 194 195 197 199 202 205 207 211 214 217 221 224 227 231 234 237 239 242 244 246 248 249 250 250 11 10 10 9 9 8 7 6 5 4 3 2 2 2 2 3 4 6 8 11 15 19 24 29 35 41 48 55 63 71 79 88 96 105 113 122 131 139 147 155 162 169 175 181 187 192 196 200 
203 206 208 209 211 211 211 211 211 210 209 207 206 204 202 201 199 197 196 195 194 193 192 192 192 192 193 194 195 197 199 201 203 206 209 212 215 219 222 225 229 232 235 238 241 244 246 248 249 251 251 252 10 10 9 9 8 7 6 5 4 3 2 1 1 1 1 2 3 5 7 10 13 18 22 27 33 39 46 54 61 69 77 86 95 103 112 121 129 137 146 153 161 168 174 180 186 191 195 199 203 205 208 209 210 211 211 211 211 210 209 208 206 205 203 201 200 
198 197 196 195 194 193 193 193 193 194 195 196 198 200 
202 204 207 210 213 216 220 223 227 230 233 237 240 242 245 247 249 251 252 253 253 9 9 9 8 7 6 5 4 3 2 1 0 
0 
0 
0 
1 2 4 6 9 12 17 21 26 32 38 45 52 60 68 76 85 94 102 111 120 128 137 145 153 160 167 174 180 185 190 195 199 202 205 207 209 210 211 212 211 211 210 209 208 207 205 203 202 200 
199 197 196 195 194 194 194 194 194 195 196 197 198 200 
203 205 208 211 214 217 221 224 227 231 234 237 240 243 246 248 250 252 253 254 254 9 9 8 8 7 6 5 4 3 2 1 0 
0 
0 
0 
0 
2 3 6 9 12 16 21 26 32 38 45 52 60 68 76 84 93 102 110 119 128 136 144 152 160 167 173 179 185 190 195 199 202 205 207 209 210 211 212 212 211 210 209 208 207 205 204 202 201 199 198 196 195 195 194 194 194 194 195 196 197 199 201 203 205 208 211 214 218 221 224 228 231 235 238 241 244 246 249 250 252 253 254 255 